<svg xmlns="http://www.w3.org/2000/svg" xmlns:xlink="http://www.w3.org/1999/xlink" width="500" zoomAndPan="magnify" viewBox="0 0 375 374.999991" height="500" preserveAspectRatio="xMidYMid meet" version="1.0"><defs><g/><clipPath id="f50038aa74"><path d="M 65.476562 126 L 154 126 L 154 267.230469 L 65.476562 267.230469 Z M 65.476562 126 " clip-rule="nonzero"/></clipPath><clipPath id="177b8c4861"><path d="M 37.5 87.371094 L 159 87.371094 L 159 176 L 37.5 176 Z M 37.5 87.371094 " clip-rule="nonzero"/></clipPath></defs><path fill="#e58013" d="M 210.8125 119.175781 L 215.171875 129.4375 L 224.941406 129.4375 L 217.871094 136.332031 L 219.542969 146.058594 L 210.8125 141.457031 L 202.070312 146.058594 L 203.742188 136.332031 L 196.679688 129.4375 L 206.441406 129.4375 L 210.8125 119.175781 " fill-opacity="1" fill-rule="nonzero"/><path fill="#264790" d="M 179.25 91.375 L 182.191406 98.292969 L 188.78125 98.292969 L 184.015625 102.9375 L 185.140625 109.484375 L 179.25 106.390625 L 173.371094 109.484375 L 174.484375 102.9375 L 169.730469 98.292969 L 176.3125 98.292969 L 179.25 91.375 " fill-opacity="1" fill-rule="nonzero"/><path fill="#e58013" d="M 159.351562 143.304688 L 161.285156 147.851562 L 165.601562 147.851562 L 162.476562 150.890625 L 163.21875 155.195312 L 159.351562 153.164062 L 155.492188 155.195312 L 156.234375 150.890625 L 153.109375 147.851562 L 157.425781 147.851562 L 159.351562 143.304688 " fill-opacity="1" fill-rule="nonzero"/><g clip-path="url(#f50038aa74)"><path fill="#e58013" d="M 76.886719 186.867188 C 70.632812 223.539062 93.910156 258.445312 129.460938 267.230469 C 127.734375 267.066406 125.984375 266.839844 124.238281 266.53125 C 85.8125 259.996094 59.957031 223.519531 66.503906 185.09375 C 73.050781 146.671875 109.515625 120.804688 147.941406 127.351562 C 149.6875 127.65625 151.417969 128.015625 153.109375 128.433594 C 116.652344 124.957031 83.136719 150.179688 76.886719 186.867188 " fill-opacity="1" fill-rule="evenodd"/></g><path fill="#264790" d="M 183.589844 241.289062 C 125.484375 274.378906 68.132812 193.476562 118.585938 149.601562 C 116.96875 150.527344 115.375 151.535156 113.824219 152.636719 C 88.382812 170.679688 82.371094 205.933594 100.402344 231.375 C 118.445312 256.816406 153.699219 262.816406 179.140625 244.785156 C 180.691406 243.679688 182.179688 242.511719 183.589844 241.289062 " fill-opacity="1" fill-rule="evenodd"/><g clip-path="url(#177b8c4861)"><path fill="#264790" d="M 140.792969 108.105469 L 144.300781 116.574219 C 141.535156 116.28125 138.773438 116.136719 136.019531 116.136719 C 117.167969 116.136719 98.785156 122.835938 84.25 134.988281 C 79.421875 139.023438 75.125 143.578125 71.398438 148.550781 L 67.726562 139.667969 L 67.269531 138.5625 L 63.707031 138.3125 L 52.101562 137.480469 L 43.828125 136.890625 L 43.5 136.867188 L 43.5 161.480469 C 44.351562 161.980469 44.929688 162.898438 44.929688 163.949219 C 44.929688 164.84375 44.515625 165.652344 43.859375 166.167969 C 43.75 166.265625 43.628906 166.351562 43.5 166.417969 L 43.5 169.117188 L 46.503906 175.128906 L 37.5 175.128906 L 40.449219 169.226562 L 40.449219 166.582031 C 39.597656 166.089844 39.019531 165.171875 39.019531 164.113281 C 39.019531 163.117188 39.523438 162.246094 40.296875 161.730469 C 40.351562 161.6875 40.394531 161.644531 40.449219 161.609375 C 40.515625 161.566406 40.570312 161.523438 40.648438 161.480469 L 40.648438 136.671875 L 90.074219 89.648438 L 145.699219 88.261719 L 158.277344 87.941406 L 140.792969 108.105469 " fill-opacity="1" fill-rule="evenodd"/></g><g fill="#264790" fill-opacity="1"><g transform="translate(137.140213, 207.304938)"><g><path d="M 27.5 0 L 25.03125 -6.703125 L 10.953125 -6.703125 L 8.53125 0 L 0.453125 0 L 14.28125 -35.3125 L 21.5 -35.3125 L 35.765625 0 Z M 17.96875 -25.984375 L 13.375 -13.375 L 22.609375 -13.375 Z M 17.96875 -25.984375 "/></g></g></g><g fill="#264790" fill-opacity="1"><g transform="translate(173.362683, 207.304938)"><g><path d="M 19.53125 -18.46875 L 38.34375 -18.46875 C 38.3125 -15.675781 37.859375 -13.109375 36.984375 -10.765625 C 36.109375 -8.429688 34.867188 -6.40625 33.265625 -4.6875 C 31.671875 -2.976562 29.769531 -1.644531 27.5625 -0.6875 C 25.363281 0.269531 22.9375 0.75 20.28125 0.75 C 17.6875 0.75 15.28125 0.296875 13.0625 -0.609375 C 10.84375 -1.515625 8.898438 -2.789062 7.234375 -4.4375 C 5.578125 -6.082031 4.289062 -8.03125 3.375 -10.28125 C 2.46875 -12.539062 2.015625 -14.984375 2.015625 -17.609375 C 2.015625 -20.265625 2.457031 -22.707031 3.34375 -24.9375 C 4.238281 -27.175781 5.503906 -29.128906 7.140625 -30.796875 C 8.773438 -32.460938 10.703125 -33.757812 12.921875 -34.6875 C 15.140625 -35.613281 17.539062 -36.078125 20.125 -36.078125 C 23.050781 -36.078125 25.757812 -35.503906 28.25 -34.359375 C 30.738281 -33.210938 32.820312 -31.628906 34.5 -29.609375 C 36.1875 -27.597656 37.300781 -25.265625 37.84375 -22.609375 L 29.96875 -22.609375 C 29.226562 -24.523438 27.984375 -26.035156 26.234375 -27.140625 C 24.484375 -28.253906 22.5 -28.8125 20.28125 -28.8125 C 18.195312 -28.8125 16.363281 -28.332031 14.78125 -27.375 C 13.195312 -26.414062 11.957031 -25.101562 11.0625 -23.4375 C 10.175781 -21.769531 9.734375 -19.828125 9.734375 -17.609375 C 9.734375 -15.421875 10.171875 -13.492188 11.046875 -11.828125 C 11.921875 -10.160156 13.148438 -8.859375 14.734375 -7.921875 C 16.316406 -6.984375 18.164062 -6.515625 20.28125 -6.515625 C 22.570312 -6.515625 24.625 -7.066406 26.4375 -8.171875 C 28.25 -9.285156 29.476562 -10.75 30.125 -12.5625 L 19.53125 -12.5625 Z M 19.53125 -18.46875 "/></g></g></g><g fill="#264790" fill-opacity="1"><g transform="translate(213.570639, 207.304938)"><g><path d="M 20.78125 0.75 C 18.09375 0.75 15.601562 0.289062 13.3125 -0.625 C 11.03125 -1.550781 9.039062 -2.847656 7.34375 -4.515625 C 5.644531 -6.179688 4.320312 -8.128906 3.375 -10.359375 C 2.4375 -12.597656 1.96875 -15.03125 1.96875 -17.65625 C 1.96875 -20.28125 2.4375 -22.707031 3.375 -24.9375 C 4.320312 -27.175781 5.644531 -29.128906 7.34375 -30.796875 C 9.039062 -32.460938 11.03125 -33.757812 13.3125 -34.6875 C 15.601562 -35.613281 18.09375 -36.078125 20.78125 -36.078125 C 23.476562 -36.078125 25.96875 -35.613281 28.25 -34.6875 C 30.539062 -33.757812 32.523438 -32.460938 34.203125 -30.796875 C 35.890625 -29.128906 37.203125 -27.175781 38.140625 -24.9375 C 39.085938 -22.707031 39.5625 -20.28125 39.5625 -17.65625 C 39.5625 -15.03125 39.085938 -12.597656 38.140625 -10.359375 C 37.203125 -8.128906 35.890625 -6.179688 34.203125 -4.515625 C 32.523438 -2.847656 30.539062 -1.550781 28.25 -0.625 C 25.96875 0.289062 23.476562 0.75 20.78125 0.75 Z M 20.78125 -6.453125 C 22.90625 -6.453125 24.796875 -6.941406 26.453125 -7.921875 C 28.117188 -8.898438 29.429688 -10.226562 30.390625 -11.90625 C 31.359375 -13.582031 31.84375 -15.5 31.84375 -17.65625 C 31.84375 -19.78125 31.359375 -21.691406 30.390625 -23.390625 C 29.429688 -25.085938 28.117188 -26.421875 26.453125 -27.390625 C 24.796875 -28.367188 22.90625 -28.859375 20.78125 -28.859375 C 18.695312 -28.859375 16.8125 -28.367188 15.125 -27.390625 C 13.445312 -26.421875 12.117188 -25.085938 11.140625 -23.390625 C 10.171875 -21.691406 9.6875 -19.78125 9.6875 -17.65625 C 9.6875 -15.539062 10.171875 -13.632812 11.140625 -11.9375 C 12.117188 -10.238281 13.445312 -8.898438 15.125 -7.921875 C 16.8125 -6.941406 18.695312 -6.453125 20.78125 -6.453125 Z M 20.78125 -6.453125 "/></g></g></g><g fill="#264790" fill-opacity="1"><g transform="translate(255.09027, 207.304938)"><g><path d="M 19.53125 -18.46875 L 38.34375 -18.46875 C 38.3125 -15.675781 37.859375 -13.109375 36.984375 -10.765625 C 36.109375 -8.429688 34.867188 -6.40625 33.265625 -4.6875 C 31.671875 -2.976562 29.769531 -1.644531 27.5625 -0.6875 C 25.363281 0.269531 22.9375 0.75 20.28125 0.75 C 17.6875 0.75 15.28125 0.296875 13.0625 -0.609375 C 10.84375 -1.515625 8.898438 -2.789062 7.234375 -4.4375 C 5.578125 -6.082031 4.289062 -8.03125 3.375 -10.28125 C 2.46875 -12.539062 2.015625 -14.984375 2.015625 -17.609375 C 2.015625 -20.265625 2.457031 -22.707031 3.34375 -24.9375 C 4.238281 -27.175781 5.503906 -29.128906 7.140625 -30.796875 C 8.773438 -32.460938 10.703125 -33.757812 12.921875 -34.6875 C 15.140625 -35.613281 17.539062 -36.078125 20.125 -36.078125 C 23.050781 -36.078125 25.757812 -35.503906 28.25 -34.359375 C 30.738281 -33.210938 32.820312 -31.628906 34.5 -29.609375 C 36.1875 -27.597656 37.300781 -25.265625 37.84375 -22.609375 L 29.96875 -22.609375 C 29.226562 -24.523438 27.984375 -26.035156 26.234375 -27.140625 C 24.484375 -28.253906 22.5 -28.8125 20.28125 -28.8125 C 18.195312 -28.8125 16.363281 -28.332031 14.78125 -27.375 C 13.195312 -26.414062 11.957031 -25.101562 11.0625 -23.4375 C 10.175781 -21.769531 9.734375 -19.828125 9.734375 -17.609375 C 9.734375 -15.421875 10.171875 -13.492188 11.046875 -11.828125 C 11.921875 -10.160156 13.148438 -8.859375 14.734375 -7.921875 C 16.316406 -6.984375 18.164062 -6.515625 20.28125 -6.515625 C 22.570312 -6.515625 24.625 -7.066406 26.4375 -8.171875 C 28.25 -9.285156 29.476562 -10.75 30.125 -12.5625 L 19.53125 -12.5625 Z M 19.53125 -18.46875 "/></g></g></g><g fill="#264790" fill-opacity="1"><g transform="translate(295.298226, 207.304938)"><g><path d="M 20.78125 0.75 C 18.09375 0.75 15.601562 0.289062 13.3125 -0.625 C 11.03125 -1.550781 9.039062 -2.847656 7.34375 -4.515625 C 5.644531 -6.179688 4.320312 -8.128906 3.375 -10.359375 C 2.4375 -12.597656 1.96875 -15.03125 1.96875 -17.65625 C 1.96875 -20.28125 2.4375 -22.707031 3.375 -24.9375 C 4.320312 -27.175781 5.644531 -29.128906 7.34375 -30.796875 C 9.039062 -32.460938 11.03125 -33.757812 13.3125 -34.6875 C 15.601562 -35.613281 18.09375 -36.078125 20.78125 -36.078125 C 23.476562 -36.078125 25.96875 -35.613281 28.25 -34.6875 C 30.539062 -33.757812 32.523438 -32.460938 34.203125 -30.796875 C 35.890625 -29.128906 37.203125 -27.175781 38.140625 -24.9375 C 39.085938 -22.707031 39.5625 -20.28125 39.5625 -17.65625 C 39.5625 -15.03125 39.085938 -12.597656 38.140625 -10.359375 C 37.203125 -8.128906 35.890625 -6.179688 34.203125 -4.515625 C 32.523438 -2.847656 30.539062 -1.550781 28.25 -0.625 C 25.96875 0.289062 23.476562 0.75 20.78125 0.75 Z M 20.78125 -6.453125 C 22.90625 -6.453125 24.796875 -6.941406 26.453125 -7.921875 C 28.117188 -8.898438 29.429688 -10.226562 30.390625 -11.90625 C 31.359375 -13.582031 31.84375 -15.5 31.84375 -17.65625 C 31.84375 -19.78125 31.359375 -21.691406 30.390625 -23.390625 C 29.429688 -25.085938 28.117188 -26.421875 26.453125 -27.390625 C 24.796875 -28.367188 22.90625 -28.859375 20.78125 -28.859375 C 18.695312 -28.859375 16.8125 -28.367188 15.125 -27.390625 C 13.445312 -26.421875 12.117188 -25.085938 11.140625 -23.390625 C 10.171875 -21.691406 9.6875 -19.78125 9.6875 -17.65625 C 9.6875 -15.539062 10.171875 -13.632812 11.140625 -11.9375 C 12.117188 -10.238281 13.445312 -8.898438 15.125 -7.921875 C 16.8125 -6.941406 18.695312 -6.453125 20.78125 -6.453125 Z M 20.78125 -6.453125 "/></g></g></g></svg>